<?xml version="1.0" encoding="UTF-8"?>
<svg id="Capa_2" data-name="Capa 2" xmlns="http://www.w3.org/2000/svg" viewBox="0 0 387.94 291.54">
  <defs>
    <style>
      .cls-1 {
        fill: #1d1d1b;
      }
    </style>
  </defs>
  <g id="Capa_1-2" data-name="Capa 1">
    <g>
      <path class="cls-1" d="M14.92,268.75v12.11c0,4.85-3.93,8.78-8.78,8.78H0v-88.17h28.48c6.78,0,12.14,2.01,16.07,6.04,3.93,4.02,5.9,9.02,5.9,14.99,0,5.34-2.17,10.22-6.51,14.65,6.51,1.45,11.75,5.07,15.73,10.85,3.98,5.79,5.97,12.66,5.97,20.62v10.4c0,5.87-4.76,10.63-10.63,10.63h-4.29v-19.67c0-6.51-1.65-11.62-4.95-15.33-3.3-3.71-7.66-5.56-13.09-5.56-5.06,0-9.29,1.76-12.68,5.29-3.39,3.53-5.09,8.32-5.09,14.38ZM25.91,215.99h-10.99v25.5c.63-.63,1.36-1.27,2.17-1.9.81-.63,1.7-1.22,2.64-1.76.95-.54,1.76-1.02,2.44-1.42.68-.41,1.61-.9,2.78-1.49,1.17-.59,2.03-1.02,2.58-1.29,5.43-2.89,8.14-6.15,8.14-9.77,0-2.44-.86-4.36-2.58-5.76-1.72-1.4-4.12-2.1-7.19-2.1Z"/>
      <path class="cls-1" d="M120.59,291.54c-12.57,0-23.26-4.48-32.08-13.43-8.82-8.95-13.23-19.85-13.23-32.69s4.41-23.49,13.23-32.49c8.82-9,19.51-13.5,32.08-13.5s23.31,4.5,32.21,13.5c8.9,9,13.36,19.83,13.36,32.49s-4.43,23.74-13.29,32.69c-8.86,8.95-19.62,13.43-32.28,13.43ZM120.59,276.21c8.41,0,15.53-2.98,21.36-8.95,5.83-5.97,8.75-13.25,8.75-21.84s-2.92-15.71-8.75-21.63c-5.83-5.92-12.95-8.88-21.36-8.88s-15.37,2.96-21.16,8.88c-5.79,5.92-8.68,13.14-8.68,21.63s2.89,15.87,8.68,21.84c5.79,5.97,12.84,8.95,21.16,8.95Z"/>
      <path class="cls-1" d="M223.4,291.54c-12.57,0-23.26-4.48-32.08-13.43-8.82-8.95-13.23-19.85-13.23-32.69s4.41-23.49,13.23-32.49c8.82-9,19.51-13.5,32.08-13.5s23.31,4.5,32.21,13.5c8.91,9,13.36,19.83,13.36,32.49s-4.43,23.74-13.29,32.69c-8.87,8.95-19.63,13.43-32.28,13.43ZM223.4,276.21c8.41,0,15.53-2.98,21.36-8.95,5.83-5.97,8.75-13.25,8.75-21.84s-2.91-15.71-8.75-21.63c-5.83-5.92-12.95-8.88-21.36-8.88s-15.38,2.96-21.16,8.88c-5.79,5.92-8.68,13.14-8.68,21.63s2.89,15.87,8.68,21.84c5.79,5.97,12.84,8.95,21.16,8.95Z"/>
      <path class="cls-1" d="M305.6,216.4v73.25h-14.92v-73.25h-18.58v-14.92h52.22v14.92h-18.72Z"/>
      <path class="cls-1" d="M332.86,264.96v-5.02h14.92v5.02c0,3.53,1.27,6.37,3.8,8.54,2.53,2.17,5.56,3.26,9.09,3.26,3.26,0,6.08-.97,8.48-2.92,2.4-1.94,3.6-4.36,3.6-7.26,0-2.26-.63-4.25-1.9-5.97-1.27-1.72-2.55-2.98-3.87-3.8-1.31-.81-3.82-2.17-7.53-4.07-.18-.09-.32-.16-.41-.2-.09-.04-.23-.11-.41-.2-.18-.09-.34-.18-.47-.27-.14-.09-.3-.18-.47-.27l-5.29-2.71c-13.11-6.6-19.67-15.14-19.67-25.64,0-7.05,2.58-12.82,7.73-17.3,5.15-4.48,11.44-6.71,18.85-6.71s14.08,2.44,19.19,7.32c5.11,4.88,7.66,11.26,7.66,19.13v5.43h-14.92v-5.15c0-3.62-1.18-6.51-3.53-8.68-2.35-2.17-5.29-3.26-8.82-3.26-3.17,0-5.81.95-7.94,2.85-2.12,1.9-3.19,4.25-3.19,7.05s1.04,4.95,3.12,6.71c2.08,1.76,5.29,3.64,9.63,5.63l5.97,2.98c6.78,3.17,12.05,7.15,15.8,11.94,3.75,4.79,5.63,10.04,5.63,15.73,0,7.32-2.69,13.23-8.07,17.7-5.38,4.48-11.78,6.71-19.19,6.71s-14.02-2.39-19.53-7.19c-5.52-4.79-8.27-11.26-8.27-19.4Z"/>
      <g>
        <path class="cls-1" d="M225.15,12.91l-29.68,29.68c-1.52,1.52-4.12.44-4.12-1.71V2.42c0-1.43,1.23-2.54,2.65-2.4,10.95,1.03,21.28,4.19,30.57,9.06,1.44.75,1.73,2.69.58,3.84Z"/>
        <path class="cls-1" d="M251.57,35.01l-56.1,56.1c-1.52,1.52-4.12.44-4.12-1.71v-18.33c0-7.24,2.88-14.18,8-19.3l34.49-34.49c.86-.86,2.23-.95,3.18-.21,5.51,4.28,10.47,9.24,14.75,14.76.74.96.65,2.33-.21,3.18Z"/>
        <path class="cls-1" d="M231.53,105.86c-5.85,5.85-10.42,12.69-13.59,20.34-3.17,7.65-4.77,15.72-4.77,23.99v11.11c-6.91,2.38-14.22,3.87-21.82,4.35v-43.75c0-8.72,3.46-17.07,9.63-23.24l57.23-57.23c4.86,8.47,8.27,17.87,9.9,27.86l-36.57,36.57Z"/>
        <path class="cls-1" d="M268.11,96.09c-4.19,25.92-20.38,47.82-42.68,59.83-1.37.74-3.03-.26-3.03-1.82v-3.06c0-14.73,5.85-28.85,16.27-39.27l24.03-24.03c2.31-2.31,6.25-.5,6,2.76-.16,2.11-.35,4.16-.58,5.59Z"/>
        <path class="cls-1" d="M147.06,12.91l29.68,29.68c1.52,1.52,4.12.44,4.12-1.71V2.42c0-1.43-1.23-2.54-2.65-2.4-10.95,1.03-21.28,4.19-30.57,9.06-1.44.75-1.73,2.69-.58,3.84Z"/>
        <path class="cls-1" d="M120.64,35.01l56.1,56.1c1.52,1.52,4.12.44,4.12-1.71v-18.33c0-7.24-2.88-14.18-8-19.3l-34.49-34.49c-.86-.86-2.23-.95-3.18-.21-5.51,4.28-10.47,9.24-14.75,14.76-.74.96-.65,2.33.21,3.18Z"/>
        <path class="cls-1" d="M140.68,105.86c5.85,5.85,10.42,12.69,13.59,20.34,3.17,7.65,4.77,15.72,4.77,23.99v11.11c6.91,2.38,14.22,3.87,21.82,4.35v-44.84c0-8.02-3.19-15.71-8.86-21.38l-58-58c-4.86,8.47-8.27,17.87-9.9,27.86l36.57,36.57Z"/>
        <path class="cls-1" d="M104.1,96.09c4.19,25.92,20.38,47.82,42.68,59.83,1.37.74,3.03-.26,3.03-1.82v-3.06c0-14.73-5.85-28.85-16.27-39.27l-24.03-24.03c-2.31-2.31-6.25-.5-6,2.76.16,2.11.35,4.16.58,5.59Z"/>
      </g>
    </g>
  </g>
</svg>