<?xml version="1.0" encoding="UTF-8"?>
<svg id="Capa_2" data-name="Capa 2" xmlns="http://www.w3.org/2000/svg" viewBox="0 0 893.36 791.99">
  <defs>
    <style>
      .cls-1 {
        fill: #1d1d1b;
      }
    </style>
  </defs>
  <g id="Capa_1-2" data-name="Capa 1">
    <g>
      <path class="cls-1" d="M34.36,603.61v27.88c0,11.17-9.06,20.23-20.23,20.23H0v-203.04h65.6c15.62,0,27.96,4.64,37.01,13.9,9.06,9.27,13.59,20.77,13.59,34.52,0,12.29-5,23.54-15,33.74,15,3.34,27.07,11.67,36.23,24.99,9.16,13.33,13.74,29.16,13.74,47.48v23.94c0,13.52-10.96,24.47-24.47,24.47h-9.89v-45.29c0-14.99-3.8-26.75-11.4-35.3-7.6-8.54-17.65-12.81-30.14-12.81-11.66,0-21.4,4.06-29.21,12.18-7.81,8.12-11.71,19.16-11.71,33.11ZM59.66,482.11h-25.3v58.73c1.45-1.46,3.12-2.92,5-4.37,1.87-1.45,3.9-2.81,6.09-4.06,2.19-1.25,4.06-2.34,5.62-3.28,1.56-.94,3.7-2.08,6.4-3.44,2.7-1.35,4.68-2.34,5.94-2.97,12.49-6.66,18.74-14.16,18.74-22.49,0-5.62-1.98-10.04-5.94-13.27-3.96-3.23-9.48-4.84-16.56-4.84Z"/>
      <path class="cls-1" d="M277.69,656.09c-28.95,0-53.57-10.31-73.87-30.92-20.31-20.62-30.46-45.71-30.46-75.28s10.15-54.09,30.46-74.81c20.3-20.72,44.93-31.08,73.87-31.08s53.67,10.36,74.19,31.08c20.51,20.73,30.77,45.66,30.77,74.81s-10.2,54.66-30.61,75.28c-20.41,20.62-45.19,30.92-74.34,30.92ZM277.69,620.8c19.37,0,35.76-6.87,49.2-20.62,13.43-13.74,20.15-30.5,20.15-50.29s-6.72-36.18-20.15-49.82c-13.43-13.64-29.83-20.46-49.2-20.46s-35.41,6.82-48.73,20.46c-13.33,13.64-19.99,30.25-19.99,49.82s6.66,36.55,19.99,50.29c13.33,13.74,29.57,20.62,48.73,20.62Z"/>
      <path class="cls-1" d="M514.46,656.09c-28.95,0-53.57-10.31-73.88-30.92-20.31-20.62-30.46-45.71-30.46-75.28s10.15-54.09,30.46-74.81c20.3-20.72,44.93-31.08,73.88-31.08s53.67,10.36,74.18,31.08c20.51,20.73,30.77,45.66,30.77,74.81s-10.2,54.66-30.61,75.28c-20.42,20.62-45.2,30.92-74.34,30.92ZM514.46,620.8c19.37,0,35.77-6.87,49.2-20.62,13.43-13.74,20.14-30.5,20.14-50.29s-6.71-36.18-20.14-49.82c-13.43-13.64-29.83-20.46-49.2-20.46s-35.41,6.82-48.73,20.46c-13.33,13.64-19.99,30.25-19.99,49.82s6.66,36.55,19.99,50.29c13.33,13.74,29.57,20.62,48.73,20.62Z"/>
      <path class="cls-1" d="M703.75,483.04v168.68h-34.36v-168.68h-42.8v-34.36h120.26v34.36h-43.11Z"/>
      <path class="cls-1" d="M766.54,594.87v-11.56h34.36v11.56c0,8.12,2.91,14.68,8.74,19.68,5.83,5,12.81,7.5,20.93,7.5,7.5,0,14.01-2.23,19.52-6.72,5.52-4.47,8.28-10.04,8.28-16.71,0-5.2-1.46-9.78-4.38-13.74-2.92-3.96-5.88-6.87-8.9-8.75s-8.8-5-17.34-9.37c-.42-.21-.73-.36-.94-.47-.21-.1-.52-.26-.94-.47-.42-.21-.78-.41-1.09-.63-.32-.2-.68-.41-1.09-.63l-12.18-6.25c-30.2-15.2-45.29-34.88-45.29-59.04,0-16.24,5.93-29.52,17.8-39.83,11.87-10.31,26.34-15.46,43.42-15.46s32.43,5.62,44.2,16.87c11.76,11.25,17.65,25.93,17.65,44.04v12.5h-34.36v-11.87c0-8.33-2.71-14.99-8.12-19.99-5.41-5-12.18-7.5-20.3-7.5-7.3,0-13.39,2.19-18.28,6.56-4.89,4.37-7.34,9.79-7.34,16.24s2.39,11.4,7.18,15.46c4.79,4.06,12.18,8.38,22.18,12.96l13.74,6.87c15.62,7.29,27.75,16.45,36.39,27.49,8.64,11.04,12.96,23.11,12.96,36.23,0,16.87-6.2,30.46-18.59,40.76-12.39,10.31-27.12,15.46-44.2,15.46s-32.28-5.51-44.98-16.55c-12.7-11.03-19.05-25.93-19.05-44.67Z"/>
      <g>
        <path class="cls-1" d="M617.85,159.26c1.42-.95,3.37-.23,3.66,1.46,1.69,9.83,4.26,29.98,2.72,41.51-1.01,7.54-7.98,15.29-14.85,19.75-22.87,14.87-49.74,25.68-73.01,39.96-36.67,22.5-58.15,55.89-65.42,99.33-3.12,18.65-6.64,21.69-31.19,21.38-1.3-.02-2.45-1.07-2.45-2.37.03-23.89.44-48.39,1.06-72.27.11-4.29,3.49-9.24,6.72-12.57,19.4-19.99,37.31-42.07,59.28-58.77,35.56-27.02,72.55-49.9,113.48-77.41Z"/>
        <path class="cls-1" d="M598.04,97.35c4.17,6.74,7.74,13.85,9.73,18.9,10.05,25.45,6.41,22.57-23.73,44.85-30.88,22.83-63.32,43.58-93.85,66.83-17.07,13-32.14,28.64-49.11,44.46-1.5,1.39-3.96.34-3.99-1.7-.19-13.43-.92-26.42.59-39.15.74-6.19,6.36-13,11.62-17.25,47.7-38.57,99.65-77.87,148.74-116.95Z"/>
        <path class="cls-1" d="M557.21,50.74c.91-.82,2.23-.89,3.12-.07,4.67,4.3,11.23,10.71,15.4,15.8,4.1,5.01,8.91,11.12,9.86,17.34.13.85-.27,1.71-.94,2.24-47.51,38.03-95.64,75.56-143.55,113.87-1.54,1.23-3.81.1-3.82-1.87-.08-22.29,0-41.24,19.79-57.37,33.49-27.28,65.81-58.94,100.12-89.96Z"/>
        <path class="cls-1" d="M484.19,368.33c6.52-77.38,73.05-97.94,126.97-128.72,1.77-1.01,3.96.51,3.51,2.49-12.3,54.46-74.71,118.01-127.59,128.93-1.56.32-3.04-1.11-2.9-2.7Z"/>
        <path class="cls-1" d="M511.52,18.1c5.17,2.19,10.03,5.25,15.97,8.45,5.73,3.09,11.65,7.29,16.27,13.09.78.98.62,2.5-.31,3.34-34.31,31.12-67.04,60.47-101.76,91.94-1.52,1.37-3.95.27-3.95-1.77-.04-23-2.12-38.18,15.45-53.26,19.15-16.43,38.59-40.19,58.33-61.79Z"/>
        <path class="cls-1" d="M437.31,72.14V2.39c0-1.35,1.18-2.44,2.52-2.39,8.26.31,15.79,1.12,23.31,2.63,8.78,1.75,21.62,4.5,28.53,8.97,1.17.76,1.31,2.36.4,3.42-15.93,18.36-40.94,47.4-50.68,58.72-1.42,1.65-4.08.58-4.08-1.6Z"/>
        <path class="cls-1" d="M235.04,159.26c-1.42-.95-3.37-.23-3.66,1.46-1.69,9.83-4.26,29.98-2.72,41.51,1.01,7.54,7.98,15.29,14.85,19.75,22.87,14.87,49.74,25.68,73.01,39.96,36.67,22.5,58.15,55.89,65.42,99.33,3.12,18.65,6.64,21.69,31.19,21.38,1.3-.02,2.45-1.07,2.45-2.37-.03-23.89-.44-48.39-1.06-72.27-.11-4.29-3.49-9.24-6.72-12.57-19.4-19.99-37.31-42.07-59.28-58.77-35.56-27.02-72.55-49.9-113.48-77.41Z"/>
        <path class="cls-1" d="M254.85,97.35c-4.17,6.74-7.74,13.85-9.73,18.9-10.05,25.45-6.41,22.57,23.73,44.85,30.88,22.83,63.32,43.58,93.85,66.83,17.07,13,32.14,28.64,49.11,44.46,1.5,1.39,3.96.34,3.99-1.7.19-13.43.92-26.42-.59-39.15-.74-6.19-6.36-13-11.62-17.25-47.7-38.57-99.65-77.87-148.74-116.95Z"/>
        <path class="cls-1" d="M295.68,50.74c-.91-.82-2.23-.89-3.12-.07-4.67,4.3-11.23,10.71-15.4,15.8s-8.91,11.12-9.86,17.34c-.13.85.27,1.71.94,2.24,47.51,38.03,95.64,75.56,143.55,113.87,1.54,1.23,3.81.1,3.82-1.87.08-22.29,0-41.24-19.79-57.37-33.49-27.28-65.81-58.94-100.12-89.96Z"/>
        <path class="cls-1" d="M368.7,368.33c-6.52-77.38-73.05-97.94-126.97-128.72-1.77-1.01-3.96.51-3.51,2.49,12.3,54.46,74.71,118.01,127.59,128.93,1.56.32,3.04-1.11,2.9-2.7Z"/>
        <path class="cls-1" d="M341.37,18.1c-5.17,2.19-10.03,5.25-15.97,8.45-5.73,3.09-11.65,7.29-16.27,13.09-.78.98-.62,2.5.31,3.34,34.31,31.12,67.04,60.47,101.76,91.94,1.52,1.37,3.95.27,3.95-1.77.04-23,2.12-38.18-15.45-53.26-19.15-16.43-38.59-40.19-58.33-61.79Z"/>
        <path class="cls-1" d="M415.58,72.14V2.39c0-1.35-1.18-2.44-2.52-2.39-8.26.31-15.79,1.12-23.31,2.63-8.78,1.75-21.62,4.5-28.53,8.97-1.17.76-1.31,2.36-.4,3.42,15.93,18.36,40.94,47.4,50.68,58.72,1.42,1.65,4.08.58,4.08-1.6Z"/>
      </g>
      <g>
        <path class="cls-1" d="M230.85,785.42v6.56h-43.02v-79.9h4.58c4.94,0,8.94,4,8.94,8.94v57.43h22.54c3.84,0,6.96,3.12,6.96,6.96Z"/>
        <path class="cls-1" d="M349.41,717.98v74.01h-7.43c-3.37,0-6.1-2.73-6.1-6.1v-73.8h7.63c3.25,0,5.89,2.64,5.89,5.89Z"/>
        <path class="cls-1" d="M485.58,758.8v33.19h-13.52v-79.9h44.74v5.9c0,4.21-3.41,7.62-7.62,7.62h-23.6v19.67h21.76v8.24c0,2.92-2.37,5.28-5.28,5.28h-16.47Z"/>
        <path class="cls-1" d="M676.88,782.86v9.13h-44.74v-79.9h44.74v13.52h-28.4c-1.56,0-2.82,1.26-2.82,2.82v16.85h21.75v13.52h-21.75v15.13c0,2.5,2.03,4.53,4.53,4.53h22.29c2.43,0,4.39,1.97,4.39,4.39Z"/>
      </g>
    </g>
  </g>
</svg>