<?xml version="1.0" encoding="UTF-8"?>
<svg id="Capa_1" data-name="Capa 1" xmlns="http://www.w3.org/2000/svg" viewBox="0 0 2288.96 279.2">
  <g>
    <path d="M1846.94,252.18v21.4h-140.35V12.94h14.94c16.11,0,29.17,13.06,29.17,29.17v187.36h73.53c12.54,0,22.71,10.17,22.71,22.71Z"/>
    <path d="M1924.02,32.16v241.42h-24.23c-10.98,0-19.88-8.9-19.88-19.88V12.94h24.89c10.61,0,19.22,8.6,19.22,19.22Z"/>
    <path d="M2019.37,165.31v108.27h-44.11V12.94h145.96v19.24c0,13.74-11.14,24.87-24.87,24.87h-76.98v64.16h70.98v26.87c0,9.52-7.72,17.23-17.23,17.23h-53.74Z"/>
    <path d="M2288.96,243.8v29.78h-145.96V12.94h145.96v44.11h-92.65c-5.08,0-9.19,4.12-9.19,9.19v54.96h70.97v44.11h-70.97v49.37c0,8.17,6.62,14.79,14.79,14.79h72.73c7.91,0,14.32,6.41,14.32,14.32Z"/>
  </g>
  <path d="M463.25,211.83v35.79c0,14.34-11.62,25.96-25.96,25.96h-18.14V12.94h84.21c20.05,0,35.89,5.95,47.52,17.84,11.63,11.9,17.45,26.67,17.45,44.31,0,15.78-6.42,30.21-19.25,43.31,19.25,4.28,34.75,14.97,46.51,32.08,11.76,17.11,17.64,37.43,17.64,60.95v30.74c0,17.35-14.07,31.42-31.42,31.42h-12.69v-58.14c0-19.25-4.88-34.35-14.64-45.31-9.76-10.96-22.65-16.44-38.7-16.44-14.97,0-27.47,5.21-37.49,15.64-10.02,10.43-15.04,24.6-15.04,42.5ZM495.73,55.85h-32.48v75.39c1.87-1.87,4.01-3.74,6.42-5.62,2.41-1.87,5.01-3.61,7.82-5.21,2.81-1.61,5.21-3.01,7.22-4.21,2.01-1.2,4.74-2.67,8.22-4.41,3.47-1.74,6.01-3.01,7.62-3.81,16.04-8.55,24.06-18.18,24.06-28.87,0-7.22-2.55-12.89-7.62-17.04-5.08-4.14-12.17-6.22-21.25-6.22Z"/>
  <path d="M763.3,279.2c-37.16,0-68.77-13.23-94.83-39.7-26.07-26.46-39.1-58.68-39.1-96.64s13.03-69.43,39.1-96.04c26.06-26.6,57.67-39.9,94.83-39.9s68.9,13.3,95.23,39.9c26.32,26.61,39.49,58.61,39.49,96.04s-13.1,70.17-39.3,96.64c-26.2,26.46-58.01,39.7-95.43,39.7ZM763.3,233.89c24.86,0,45.91-8.82,63.15-26.46,17.24-17.64,25.86-39.16,25.86-64.56s-8.62-46.45-25.86-63.96c-17.24-17.51-38.29-26.27-63.15-26.27s-45.45,8.76-62.56,26.27c-17.11,17.51-25.66,38.83-25.66,63.96s8.55,46.92,25.66,64.56c17.11,17.64,37.96,26.46,62.56,26.46Z"/>
  <path d="M1054.93,279.2c-37.16,0-68.77-13.23-94.84-39.7-26.07-26.46-39.1-58.68-39.1-96.64s13.03-69.43,39.1-96.04c26.06-26.6,57.67-39.9,94.84-39.9s68.9,13.3,95.23,39.9c26.33,26.61,39.5,58.61,39.5,96.04s-13.09,70.17-39.29,96.64c-26.21,26.46-58.02,39.7-95.44,39.7ZM1054.93,233.89c24.86,0,45.91-8.82,63.16-26.46,17.24-17.64,25.86-39.16,25.86-64.56s-8.61-46.45-25.86-63.96c-17.24-17.51-38.3-26.27-63.16-26.27s-45.45,8.76-62.56,26.27c-17.11,17.51-25.66,38.83-25.66,63.96s8.55,46.92,25.66,64.56c17.11,17.64,37.96,26.46,62.56,26.46Z"/>
  <path d="M1296.65,57.05v216.53h-44.11V57.05h-54.94V12.94h154.38v44.11h-55.34Z"/>
  <path d="M1393.03,200.6v-14.84h44.11v14.84c0,10.43,3.74,18.85,11.23,25.26,7.48,6.42,16.44,9.62,26.86,9.62,9.63,0,17.98-2.87,25.06-8.62,7.08-5.74,10.63-12.89,10.63-21.45,0-6.68-1.87-12.56-5.62-17.64-3.75-5.08-7.55-8.82-11.43-11.23-3.88-2.41-11.29-6.42-22.26-12.03-.54-.26-.94-.46-1.2-.6-.27-.13-.67-.33-1.2-.6-.54-.26-1.01-.53-1.4-.8-.4-.26-.87-.53-1.4-.8l-15.64-8.02c-38.77-19.51-58.14-44.77-58.14-75.79,0-20.85,7.62-37.9,22.86-51.13,15.24-13.23,33.81-19.85,55.74-19.85s41.63,7.22,56.74,21.65c15.1,14.44,22.65,33.28,22.65,56.54v16.04h-44.11v-15.24c0-10.69-3.48-19.25-10.43-25.66-6.95-6.42-15.64-9.62-26.06-9.62-9.37,0-17.18,2.81-23.46,8.42-6.28,5.62-9.42,12.57-9.42,20.85s3.07,14.64,9.22,19.85c6.15,5.21,15.64,10.76,28.47,16.64l17.64,8.82c20.05,9.36,35.62,21.12,46.72,35.29,11.09,14.17,16.64,29.67,16.64,46.51,0,21.65-7.96,39.1-23.86,52.33-15.9,13.23-34.82,19.85-56.74,19.85s-41.44-7.08-57.74-21.25c-16.31-14.17-24.46-33.28-24.46-57.34Z"/>
  <g>
    <path d="M205.04,21.76l-50.03,50.03c-2.56,2.56-6.95.75-6.95-2.88V4.07c0-2.41,2.08-4.28,4.47-4.05,18.45,1.74,35.86,7.06,51.53,15.26,2.43,1.27,2.91,4.54.97,6.48Z"/>
    <path d="M249.56,59.02l-94.55,94.55c-2.56,2.56-6.95.75-6.95-2.88v-30.9c0-12.2,4.85-23.91,13.48-32.54l58.13-58.13c1.45-1.45,3.75-1.6,5.37-.35,9.3,7.22,17.65,15.58,24.87,24.88,1.25,1.62,1.1,3.92-.35,5.37Z"/>
    <path d="M215.79,178.42c-9.86,9.86-17.57,21.4-22.91,34.28-5.34,12.89-8.04,26.49-8.04,40.44v18.72c-11.64,4.01-23.97,6.53-36.77,7.33v-73.74c0-14.69,5.84-28.78,16.22-39.17l96.46-96.46c8.19,14.27,13.94,30.11,16.68,46.96l-61.64,61.64Z"/>
    <path d="M277.45,161.97c-7.07,43.69-34.35,80.61-71.94,100.85-2.31,1.24-5.11-.44-5.11-3.07v-5.16c0-24.82,9.86-48.63,27.42-66.19l40.5-40.5c3.9-3.9,10.53-.85,10.12,4.65-.26,3.56-.59,7.01-.98,9.42Z"/>
    <path d="M73.41,21.76l50.03,50.03c2.56,2.56,6.95.75,6.95-2.88V4.07c0-2.41-2.08-4.28-4.47-4.05-18.45,1.74-35.86,7.06-51.53,15.26-2.43,1.27-2.91,4.54-.97,6.48Z"/>
    <path d="M28.88,59.02l94.55,94.55c2.56,2.56,6.95.75,6.95-2.88v-30.9c0-12.2-4.85-23.91-13.48-32.54L58.77,29.12c-1.45-1.45-3.75-1.6-5.37-.35-9.3,7.22-17.65,15.58-24.87,24.88-1.25,1.62-1.1,3.92.35,5.37Z"/>
    <path d="M62.66,178.42c9.86,9.86,17.57,21.4,22.91,34.28,5.34,12.89,8.04,26.49,8.04,40.44v18.72c11.64,4.01,23.97,6.53,36.77,7.33v-75.58c0-13.52-5.37-26.48-14.93-36.04L17.7,69.82c-8.19,14.27-13.94,30.11-16.68,46.96l61.64,61.64Z"/>
    <path d="M1,161.97c7.07,43.69,34.35,80.61,71.94,100.85,2.31,1.24,5.11-.44,5.11-3.07v-5.16c0-24.82-9.86-48.63-27.42-66.19l-40.5-40.5c-3.9-3.9-10.53-.85-10.12,4.65.26,3.56.59,7.01.98,9.42Z"/>
  </g>
</svg>